Video
ID                               : 0
Format                           : AVC
Format/Info                      : Advanced Video Codec
Format profile                   : High@L5.1
Format settings, CABAC           : Yes
Format settings, ReFrames        : 3 frames
Codec ID                         : H264
Duration                         : 1mn 55s
Bit rate                         : 2 000 Kbps
Width                            : 640 pixels
Height                           : 320 pixels
Display aspect ratio             : 2.000
Frame rate                       : 30.000 fps
Resolution                       : 24 bits
Colorimetry                      : 4:2:0
Scan type                        : Progressive
Bits/(Pixel*Frame)               : 0.326
Stream size                      : 27.5 MiB (86%)
Writing library                  : x264 core 66 r1115bm_exp 11863ac
Encoding settings                : cabac=1 / ref=3 / deblock=1:0:0 / analyse=0x3:0x133
 / me=umh / subme=7 / psy_rd=0.0:0.0 / mixed_ref=1 / me_range=16 / chroma_me=1 / trellis=1
 / 8x8dct=1 / cqm=0 / deadzone=21,11 / chroma_qp_offset=0 / threads=1 / thread_queue=1 / nr=0
 / decimate=1 / mbaff=0 / bframes=3 / b_pyramid=1 / b_adapt=2 / b_bias=0 / direct=3 / wpredb=1
 / keyint=300 / keyint_min=30 / scenecut=40 / rc=3pass / bitrate=2000 / ratetol=1.0 / qcomp=0.60
 / qpmin=10 / qpmax=51 / qpstep=4 / cplxblur=20.0 / qblur=0.5 / ip_ratio=1.40
 / pb_ratio=1.30 / aq=1:1.00:0:10.00:1.00:1.00:1.00

Audio
ID                               : 1
Format                           : MPEG Audio
Format version                   : Version 1
Format profile                   : Layer 3
Codec ID                         : 55
Codec ID/Hint                    : MP3
Duration                         : 1mn 55s
Bit rate mode                    : Constant
Bit rate                         : 320 Kbps
Channel(s)                       : 2 channels
Sampling rate                    : 44.1 KHz
Resolution                       : 16 bits
Stream size                      : 4.40 MiB (14%)
Alignment                        : Split accross interleaves
Interleave, duration             : 33 ms (1.00 video frame)
Interleave, preload duration     : 500 ms
Writing library                  : LAME3.98.2


thumbs/screen: 
http://i18.photobucket.com/albums/b116/mattlb0619/mariah_obsessed_mv/snapshot20090715224027.jpg 
http://i18.photobucket.com/albums/b116/mattlb0619/mariah_obsessed_mv/snapshot20090715224051.jpg 
http://i18.photobucket.com/albums/b116/mattlb0619/mariah_obsessed_mv/snapshot20090715224104.jpg 
http://i18.photobucket.com/albums/b116/mattlb0619/mariah_obsessed_mv/obsessedthumbs.jpg
